<?xml version="1.0" encoding="utf-8"?>
<!-- Generator: Adobe Illustrator 16.0.0, SVG Export Plug-In . SVG Version: 6.00 Build 0)  -->
<!DOCTYPE svg PUBLIC "-//W3C//DTD SVG 1.1//EN" "http://www.w3.org/Graphics/SVG/1.1/DTD/svg11.dtd">
<svg version="1.1" id="Layer_1" xmlns="http://www.w3.org/2000/svg" xmlns:xlink="http://www.w3.org/1999/xlink" x="0px" y="0px"
	 width="216.667px" height="235.543px" viewBox="0 0 216.667 235.543" enable-background="new 0 0 216.667 235.543"
	 xml:space="preserve">
<g>
	<path fill="#FFFFFF" d="M26.204,52.019v-0.513l-1.475-0.321c-1.026-0.213-2.032-0.737-3.015-1.571
		c-0.984-0.834-1.476-1.849-1.476-3.047l0.028-19.563h1.896c0.17,0,0.417,0.011,0.738,0.032c0.321,0.022,0.94,0.107,1.86,0.257
		c0.919,0.15,1.796,0.364,2.63,0.641c0.834,0.279,1.764,0.717,2.791,1.315c1.026,0.6,1.902,1.305,2.629,2.117
		c0.727,0.813,1.347,1.882,1.86,3.207c0.513,1.326,0.77,2.801,0.77,4.426h0.578V13.983H35.44c0,1.625-0.256,3.101-0.77,4.426
		c-0.513,1.326-1.134,2.396-1.86,3.207c-0.728,0.813-1.604,1.519-2.629,2.117c-1.026,0.6-1.957,1.038-2.791,1.315
		c-0.833,0.279-1.71,0.492-2.63,0.642c-0.92,0.15-1.539,0.235-1.86,0.256c-0.321,0.022-0.567,0.032-0.738,0.032h-1.895l0.034-23.75
		l0.386-0.11c0.342-0.042,0.951-0.106,1.828-0.192c0.876-0.085,1.892-0.128,3.046-0.128c2.566,0,5.067,0.503,7.505,1.507
		c2.438,1.005,4.426,2.107,5.965,3.303c1.539,1.198,2.992,2.588,4.361,4.169c1.368,1.583,2.245,2.684,2.63,3.303
		c0.385,0.621,0.684,1.123,0.898,1.507h0.577L42.56,2.501l-0.898-0.128C41.021,2.245,40.133,2.084,39,1.892
		c-1.134-0.192-2.374-0.374-3.72-0.545c-1.347-0.17-2.897-0.321-4.65-0.449c-1.754-0.128-3.442-0.192-5.067-0.192
		c-1.154,0.043-2.929,0.192-5.324,0.449v0.006c-2.28,0.251-4.228,0.378-5.837,0.378c-4.49,0-8.232-0.278-11.225-0.834v0.513
		c0.085,0,0.31,0.032,0.673,0.096c0.363,0.064,0.855,0.214,1.476,0.449C5.945,2,6.534,2.288,7.09,2.63
		c0.555,0.343,1.047,0.824,1.475,1.443c0.427,0.62,0.642,1.293,0.642,2.021L9.078,46.567c0,0.77-0.214,1.465-0.641,2.084
		c-0.428,0.621-0.909,1.091-1.443,1.411c-0.535,0.321-1.145,0.609-1.828,0.866c-0.685,0.256-1.154,0.407-1.411,0.449
		c-0.256,0.043-0.471,0.086-0.641,0.128v0.513c3.036-0.642,6.873-0.962,11.513-0.962C19.266,51.057,23.125,51.377,26.204,52.019z"/>
	<path fill="#FFFFFF" d="M42.432,26.812c-1.668,2.052-2.501,3.806-2.501,5.259c-0.043,1.069,0.353,1.957,1.187,2.662
		s1.828,1.058,2.982,1.058c1.753,0.043,3.089-0.598,4.009-1.924c0.919-1.325,1.38-3.036,1.38-5.131l-0.064-3.015
		c0-1.709,0.555-2.982,1.668-3.816c1.111-0.833,2.586-1.25,4.426-1.25c0.982,0.043,1.645,0.375,1.988,0.994
		c0.342,0.62,0.513,1.55,0.513,2.79v8.834c-0.702,0.277-1.582,0.623-2.662,1.044c-2.63,1.026-4.522,1.796-5.677,2.309
		c-0.128,0.043-0.32,0.128-0.577,0.256c-1.241,0.557-2.267,1.059-3.079,1.507c-0.813,0.449-1.754,1.059-2.822,1.828
		c-1.069,0.77-1.871,1.658-2.405,2.662c-0.535,1.005-0.781,2.106-0.738,3.303c0,1.839,0.748,3.378,2.245,4.618
		c1.496,1.24,3.228,1.86,5.195,1.86c2.694,0,5.313-0.802,7.857-2.405c1.169-0.737,2.057-1.548,2.689-2.425
		c0.067,1.514,0.611,2.696,1.673,3.516c1.132,0.876,2.661,1.315,4.586,1.315c1.196,0,2.415-0.343,3.656-1.026
		c1.239-0.684,2.158-1.411,2.758-2.181l-0.449-0.321c-0.898,0.641-1.625,0.898-2.181,0.77c-0.984-0.299-1.476-0.919-1.476-1.86
		V27.196c0-0.812-0.15-1.732-0.449-2.758c-1.197-3.42-4.041-5.131-8.53-5.131c-2.909,0-5.752,0.76-8.531,2.277
		C46.322,23.102,44.099,24.845,42.432,26.812z M56.703,47.882c-1.305,1.262-2.555,1.892-3.752,1.892
		c-0.812,0-1.497-0.16-2.053-0.481c-0.557-0.321-0.973-0.78-1.25-1.379c-0.279-0.599-0.472-1.197-0.578-1.796
		c-0.107-0.599-0.16-1.304-0.16-2.117c-0.043-0.77-0.021-1.485,0.064-2.149c0.085-0.663,0.277-1.261,0.577-1.796
		c0.299-0.534,0.556-1.004,0.77-1.411c0.214-0.406,0.62-0.802,1.219-1.187s1.036-0.695,1.315-0.93
		c0.277-0.234,0.834-0.513,1.668-0.834c0.833-0.321,1.399-0.534,1.699-0.641c0.281-0.1,0.888-0.309,1.796-0.619v11.75
		C57.698,46.772,57.265,47.339,56.703,47.882z"/>
	<path fill="#FFFFFF" d="M74.919,36.914c1.261,0.749,2.64,1.507,4.137,2.277c1.496,0.77,2.876,1.486,4.138,2.148
		c1.261,0.664,2.319,1.529,3.175,2.598c0.855,1.069,1.283,2.288,1.283,3.656l-0.129,0.962c-0.043,0.685-0.385,1.347-1.025,1.989
		c-0.643,0.641-1.54,0.962-2.694,0.962c-2.096,0-4.372-1.475-6.831-4.426s-4.031-5.922-4.715-8.916h-0.513L71.552,49.71l1.475,0.77
		c0.94,0.471,2.319,0.952,4.138,1.443c1.817,0.491,3.581,0.738,5.292,0.738c3.121,0,5.857-1.026,8.21-3.079
		c2.351-2.052,3.527-4.468,3.527-7.248c0-1.753-0.32-3.313-0.962-4.682c-0.642-1.368-1.475-2.491-2.502-3.368
		c-1.025-0.876-2.159-1.657-3.398-2.341c-1.241-0.684-2.48-1.304-3.721-1.86c-1.24-0.555-2.373-1.101-3.399-1.636
		c-1.026-0.534-1.86-1.175-2.502-1.924c-0.642-0.748-0.962-1.592-0.962-2.533l0.129-0.834c0.127-0.555,0.49-1.111,1.09-1.667
		c0.598-0.556,1.411-0.834,2.438-0.834c1.453,0,3.1,0.866,4.938,2.598s3.721,4.394,5.645,7.986H91.5l-0.961-9.172l-0.706-0.706
		c-0.472-0.427-1.379-0.876-2.726-1.347c-1.348-0.47-2.898-0.706-4.65-0.706c-3.293,0-6.115,1.102-8.467,3.303
		c-2.353,2.203-3.528,4.565-3.528,7.088c0,1.583,0.427,2.994,1.283,4.233C72.599,35.172,73.658,36.166,74.919,36.914z"/>
	<path fill="#FFFFFF" d="M96.085,7.473c1.004,1.219,1.508,2.812,1.508,4.778v36.304c0,0.642-0.321,1.219-0.963,1.732
		c-0.641,0.513-1.282,0.834-1.924,0.962l-0.963,0.256v0.513c5.046-0.684,10.456-0.684,16.229,0c0-0.213,0.021-0.385,0.064-0.513
		l-0.963-0.256c-0.727-0.17-1.369-0.491-1.924-0.962c-0.641-0.47-0.962-1.154-0.962-2.052V26.953
		c0.375-0.314,0.788-0.644,1.282-1.007c0.727-0.534,1.54-1.068,2.438-1.604c0.898-0.534,1.785-0.844,2.662-0.93
		c0.876-0.085,1.678,0.054,2.405,0.417c0.727,0.364,1.325,1.219,1.796,2.566c0.471,1.347,0.706,3.154,0.706,5.42v16.741
		c0,0.642-0.321,1.219-0.962,1.732c-0.643,0.513-1.283,0.834-1.925,0.962l-0.962,0.256v0.513c1.796,0,4.511,0,8.146,0
		c3.633,0,6.35,0,8.146,0v-0.513l-0.962-0.256c-0.642-0.17-1.283-0.491-1.924-0.962c-0.643-0.47-0.963-1.154-0.963-2.052V28.671
		c0-1.71-0.225-3.249-0.674-4.618c-0.449-1.368-1.209-2.491-2.277-3.368c-1.068-0.875-2.384-1.357-3.943-1.443
		c-1.562-0.085-3.561,0.407-5.998,1.475c-2.12,0.93-4.451,2.33-6.991,4.198V0.77l-0.449-0.064c-1.241,0.77-2.556,1.39-3.944,1.86
		c-1.391,0.471-2.609,0.812-3.656,1.026c-1.049,0.215-2.727,0.492-5.035,0.834c-0.471,0.086-0.834,0.15-1.09,0.192v0.385
		C93.722,5.431,95.08,6.254,96.085,7.473z"/>
	<path fill="#FFFFFF" d="M132.709,26.715c1.005,1.218,1.507,2.812,1.507,4.778l-0.063,17.062c0.042,0.6-0.257,1.155-0.897,1.668
		c-0.643,0.513-1.306,0.856-1.989,1.026l-0.962,0.256c0.042,0.128,0.064,0.3,0.064,0.513c5.388-0.684,10.818-0.684,16.291,0v-0.513
		l-0.961-0.256c-0.77-0.17-1.455-0.523-2.053-1.059c-0.6-0.534-0.877-1.187-0.834-1.956V19.948l-0.449-0.064
		c-1.326,0.813-2.736,1.476-4.233,1.989s-2.78,0.866-3.849,1.058c-1.069,0.192-2.95,0.503-5.645,0.93v0.385
		C130.346,24.674,131.705,25.497,132.709,26.715z"/>
	<path fill="#FFFFFF" d="M139.091,11.225c1.539,0,2.822-0.556,3.85-1.668c1.025-1.111,1.539-2.438,1.539-3.977
		c0-1.54-0.514-2.854-1.539-3.945C141.914,0.545,140.63,0,139.091,0c-1.497,0-2.758,0.545-3.784,1.636s-1.539,2.405-1.539,3.945
		c0,1.583,0.502,2.918,1.507,4.009C136.279,10.68,137.552,11.225,139.091,11.225z"/>
	<path fill="#FFFFFF" d="M174.689,24.053c-3.377-3.164-7.439-4.747-12.186-4.747c-4.705,0-8.746,1.583-12.123,4.747
		c-3.336,3.207-5.004,7.163-5.004,11.866c0,4.833,1.668,8.831,5.004,11.995c3.291,3.165,7.332,4.747,12.123,4.747
		c4.83,0,8.893-1.582,12.186-4.747c3.336-3.121,5.025-7.12,5.068-11.995C179.714,31.216,178.025,27.26,174.689,24.053z
		 M169.302,35.855c0,0.128,0,0.299,0,0.513c0,1.71-0.012,3.004-0.033,3.88c-0.021,0.877-0.096,2.021-0.225,3.432
		c-0.127,1.411-0.332,2.48-0.609,3.207c-0.277,0.728-0.662,1.498-1.154,2.309c-0.492,0.813-1.133,1.39-1.924,1.732
		c-0.791,0.343-1.742,0.513-2.854,0.513c-0.857,0-1.615-0.096-2.277-0.289c-0.664-0.192-1.23-0.555-1.701-1.091
		c-0.471-0.534-0.865-1.004-1.186-1.411c-0.32-0.406-0.578-1.09-0.77-2.052c-0.193-0.962-0.354-1.71-0.48-2.245
		c-0.129-0.534-0.215-1.453-0.258-2.758c-0.043-1.304-0.064-2.213-0.064-2.726s0-1.518,0-3.015c0-1.411,0-2.395,0-2.951
		c0-0.555,0.021-1.464,0.064-2.726c0.043-1.261,0.129-2.17,0.258-2.726c0.127-0.555,0.287-1.293,0.48-2.213
		c0.191-0.919,0.459-1.604,0.801-2.052c0.342-0.449,0.738-0.93,1.188-1.443s1.004-0.866,1.668-1.059
		c0.662-0.192,1.42-0.289,2.277-0.289c0.854,0,1.613,0.096,2.275,0.289c0.664,0.193,1.23,0.545,1.701,1.059
		c0.469,0.513,0.875,0.984,1.219,1.411c0.342,0.428,0.609,1.112,0.801,2.053c0.193,0.941,0.354,1.689,0.48,2.245
		c0.129,0.556,0.215,1.454,0.258,2.694c0.041,1.241,0.064,2.149,0.064,2.726C169.302,33.45,169.302,34.444,169.302,35.855z"/>
	<path fill="#FFFFFF" d="M214.136,51.25c-0.684-0.17-1.326-0.491-1.924-0.962c-0.727-0.513-1.049-1.197-0.961-2.052l-0.064-19.627
		c0-1.71-0.225-3.25-0.674-4.618c-0.449-1.368-1.209-2.491-2.277-3.368c-1.07-0.876-2.385-1.357-3.945-1.443
		c-1.561-0.085-3.559,0.407-5.996,1.476c-2.102,0.922-4.413,2.307-6.928,4.151v-4.793l-0.449-0.064
		c-1.197,0.728-2.395,1.326-3.592,1.796c-1.668,0.642-5.047,1.347-10.135,2.117v0.385c1.711,0.428,3.068,1.251,4.074,2.47
		c1.004,1.218,1.506,2.812,1.506,4.778l-0.064,17.062c0.043,0.6-0.256,1.155-0.896,1.668c-0.643,0.513-1.305,0.856-1.988,1.026
		l-0.963,0.256v0.513c5.045-0.77,10.498-0.77,16.355,0v-0.513l-0.961-0.256c-0.77-0.17-1.455-0.523-2.053-1.059
		c-0.6-0.534-0.877-1.187-0.834-1.956V26.868c0.366-0.317,0.769-0.643,1.25-0.987c0.748-0.534,1.561-1.068,2.438-1.604
		c0.877-0.534,1.754-0.844,2.631-0.93c0.875-0.085,1.688,0.054,2.438,0.417c0.746,0.364,1.346,1.219,1.795,2.565
		c0.449,1.347,0.674,3.154,0.674,5.42v16.805c0,0.642-0.32,1.219-0.963,1.732c-0.641,0.513-1.281,0.834-1.924,0.962l-0.961,0.256
		v0.513c5.645-0.727,11.074-0.727,16.291,0c0-0.213,0.021-0.385,0.064-0.513L214.136,51.25z"/>
	<path fill="#FFFFFF" d="M2.792,76.095c0.342-1.068,1.015-2.383,2.021-3.944c1.004-1.561,2.234-3.111,3.688-4.65
		c1.453-1.54,3.453-2.854,5.997-3.945c1.966-0.843,4.097-1.352,6.382-1.543v44.678c0,0.77-0.214,1.465-0.642,2.084
		c-0.428,0.621-0.909,1.091-1.443,1.411c-0.535,0.321-1.145,0.609-1.828,0.866c-0.685,0.256-1.155,0.407-1.411,0.449
		c-0.257,0.044-0.471,0.087-0.642,0.128v0.514c3.079-0.642,6.927-0.962,11.546-0.962c4.618,0,8.444,0.32,11.481,0.962v-0.514
		l-1.475-0.32c-0.984-0.213-1.967-0.737-2.951-1.571c-0.984-0.834-1.475-1.849-1.475-3.047V62.005
		c1.522,0.125,2.989,0.39,4.394,0.812c1.989,0.6,3.656,1.337,5.003,2.213c1.347,0.877,2.598,1.924,3.752,3.143
		c1.155,1.219,2.053,2.331,2.694,3.335c0.641,1.005,1.219,2.053,1.731,3.143s0.834,1.828,0.962,2.213
		c0.129,0.385,0.214,0.685,0.257,0.898h0.513l-3.335-17.832l-1.09,0.256c-0.77,0.128-2.94,0.268-6.51,0.417
		c-3.571,0.15-8.178,0.225-13.823,0.225c-12.615,0-19.799-0.299-21.552-0.898L1.702,77.763h0.513L2.792,76.095z"/>
	<path fill="#FFFFFF" d="M67.511,93.67c0-3.377-1.326-6.596-3.977-9.653c-2.652-3.057-5.965-4.586-9.941-4.586
		c-4.705,0-8.66,1.615-11.867,4.843c-3.207,3.229-4.811,7.195-4.811,11.898c0,4.79,1.582,8.766,4.746,11.93
		c3.164,3.165,7.121,4.746,11.867,4.746c2.053-0.385,3.934-1.025,5.645-1.924c1.709-0.898,3.057-1.828,4.041-2.79
		c0.982-0.962,1.806-1.945,2.469-2.951c0.662-1.004,1.123-1.796,1.379-2.373c0.257-0.577,0.385-0.93,0.385-1.059l-0.641-0.064
		c-2.011,3.165-5.004,4.747-8.98,4.747c-1.453,0-2.801-0.257-4.041-0.77c-3.378-1.368-5.752-4.233-7.119-8.595
		c-0.354-1.158-0.591-2.29-0.736-3.399h12.987H67.511z M45.808,92.516c-0.156-2.358,0.17-4.604,0.986-6.735
		c1.325-3.506,3.593-5.26,6.8-5.26c1.196,0,2.18,0.364,2.95,1.091c0.77,0.728,1.314,1.828,1.636,3.303
		c0.32,1.475,0.523,2.812,0.609,4.009c0.067,0.951,0.107,2.156,0.121,3.592H45.808z"/>
	<path fill="#FFFFFF" d="M89.994,93.767c0.875,1.39,2.062,2.084,3.559,2.084c1.197,0,2.224-0.363,3.08-1.09
		c0.854-0.727,1.282-1.988,1.282-3.785c0-2.779-1.112-5.398-3.335-7.857c-2.225-2.458-5.154-3.688-8.787-3.688
		c-4.705,0-8.671,1.604-11.898,4.811c-3.229,3.207-4.865,7.184-4.907,11.931c0,4.79,1.581,8.755,4.746,11.898
		c3.164,3.143,7.12,4.715,11.866,4.715c2.053,0,3.934-0.396,5.645-1.187c1.71-0.791,3.047-1.678,4.01-2.662
		c0.961-0.983,1.805-2.105,2.533-3.368c0.727-1.261,1.176-2.138,1.347-2.629c0.171-0.491,0.299-0.887,0.385-1.187l-0.642-0.064
		c-1.967,3.122-4.961,4.682-8.979,4.682c-1.411,0-2.716-0.234-3.913-0.706c-3.422-1.368-5.815-4.233-7.184-8.595
		c-1.283-4.062-1.283-7.825,0-11.289c1.368-3.506,3.656-5.26,6.863-5.26c1.368-0.042,2.49,0.588,3.367,1.893
		c0.876,1.305,1.016,3.346,0.417,6.125C88.935,90.635,89.117,92.377,89.994,93.767z"/>
	<path fill="#FFFFFF" d="M134.026,111.629l-0.962-0.256c-0.642-0.17-1.283-0.491-1.924-0.962c-0.643-0.47-0.963-1.154-0.963-2.052
		V88.795c0-1.71-0.225-3.249-0.674-4.618c-0.449-1.368-1.209-2.491-2.277-3.368c-1.068-0.875-2.384-1.357-3.943-1.443
		c-1.562-0.085-3.561,0.407-5.998,1.475c-2.12,0.93-4.451,2.33-6.991,4.198V60.894l-0.449-0.064c-1.241,0.77-2.556,1.39-3.944,1.86
		c-1.391,0.471-2.609,0.812-3.656,1.026c-1.049,0.215-2.727,0.492-5.035,0.834c-0.471,0.086-0.834,0.15-1.09,0.192v0.385
		c1.709,0.428,3.066,1.251,4.072,2.47c1.004,1.219,1.508,2.812,1.508,4.778v36.304c0,0.642-0.321,1.219-0.963,1.732
		c-0.641,0.513-1.282,0.834-1.924,0.962l-0.963,0.256v0.514c5.046-0.684,10.456-0.684,16.229,0c0-0.213,0.021-0.385,0.064-0.514
		l-0.963-0.256c-0.727-0.17-1.369-0.491-1.924-0.962c-0.641-0.47-0.962-1.154-0.962-2.052V87.077
		c0.375-0.314,0.788-0.644,1.282-1.007c0.727-0.534,1.54-1.068,2.438-1.604c0.898-0.534,1.785-0.844,2.662-0.93
		c0.876-0.085,1.678,0.054,2.405,0.417c0.727,0.364,1.325,1.219,1.796,2.566c0.471,1.347,0.706,3.154,0.706,5.42v16.741
		c0,0.642-0.321,1.219-0.962,1.732c-0.643,0.513-1.283,0.834-1.925,0.962l-0.962,0.256v0.514c1.796,0,4.511,0,8.146,0
		c3.633,0,6.35,0,8.146,0V111.629z"/>
	<path fill="#FFFFFF" d="M7.924,126.277l18.473,46.631h0.834l5.031-12.635h0.036l11.225-28.031c0.054-0.098,0.132-0.219,0.231-0.361
		l16.253,41.027h0.834l5.03-12.635h0.036l11.225-28.031l0.514-1.09c0.342-0.727,0.876-1.613,1.604-2.662
		c0.727-1.047,1.539-2.094,2.438-3.143c0.898-1.047,1.998-1.945,3.303-2.693s2.641-1.145,4.01-1.188v-0.514
		c-3.893,0.6-7.559,0.889-11.001,0.867s-6.489-0.311-9.14-0.867v0.514l1.09,0.129c0.77,0.127,1.613,0.395,2.533,0.801
		c0.92,0.408,1.797,0.984,2.631,1.732s1.367,1.742,1.604,2.982c0.234,1.24,0.031,2.779-0.609,4.617l-10.216,26.129l-12.297-31.58
		c-0.215-0.428-0.279-0.822-0.193-1.188c0.086-0.361,0.182-0.682,0.289-0.961c0.105-0.277,0.32-0.545,0.641-0.803
		c0.321-0.256,0.609-0.469,0.867-0.641c0.256-0.17,0.587-0.33,0.994-0.48c0.405-0.15,0.737-0.268,0.994-0.354
		c0.256-0.086,0.533-0.16,0.834-0.225c0.298-0.064,0.502-0.105,0.609-0.129c0.105-0.02,0.181-0.031,0.225-0.031v-0.514
		c-7.697,1.113-15.545,1.113-23.541,0v0.514l1.19,0.312c0.242,0.091,0.486,0.183,0.766,0.297c0.363,0.15,0.748,0.363,1.155,0.641
		c0.345,0.237,0.678,0.485,1.008,0.736c0.949,0.79,1.655,1.727,2.103,2.824c1.068,2.652,1.304,4.746,0.706,6.285l-9.955,25.3
		l-12.238-31.585c-0.214-0.428-0.278-0.822-0.192-1.188c0.085-0.361,0.182-0.682,0.289-0.961c0.106-0.277,0.321-0.545,0.642-0.803
		c0.321-0.256,0.609-0.469,0.866-0.641c0.257-0.17,0.587-0.33,0.994-0.48c0.406-0.15,0.738-0.268,0.995-0.354
		c0.256-0.086,0.534-0.16,0.833-0.225c0.299-0.064,0.502-0.105,0.609-0.129c0.106-0.02,0.182-0.031,0.225-0.031v-0.514
		c-1.882,0.514-4.373,0.812-7.473,0.898c-3.101,0.086-5.987,0.031-8.659-0.16c-2.673-0.193-5.142-0.438-7.408-0.738v0.514
		c0.17,0,0.598,0.107,1.283,0.32c0.684,0.215,1.561,0.729,2.63,1.539C6.747,124.141,7.496,125.123,7.924,126.277z"/>
	<path fill="#FFFFFF" d="M102.66,162.934c0.257-0.576,0.385-0.93,0.385-1.057l-0.641-0.064c-2.011,3.164-5.004,4.746-8.98,4.746
		c-1.453,0-2.801-0.256-4.041-0.77c-3.378-1.369-5.752-4.234-7.119-8.596c-0.354-1.158-0.591-2.289-0.736-3.398h12.987h8.595
		c0-3.379-1.326-6.596-3.977-9.654c-2.652-3.057-5.965-4.586-9.941-4.586c-4.705,0-8.66,1.615-11.867,4.844
		s-4.811,7.193-4.811,11.896c0,4.791,1.582,8.768,4.746,11.932s7.121,4.746,11.867,4.746c2.053-0.385,3.934-1.025,5.645-1.924
		c1.709-0.898,3.057-1.828,4.041-2.791c0.982-0.961,1.806-1.945,2.469-2.949C101.943,164.303,102.404,163.512,102.66,162.934z
		 M82.391,145.904c1.325-3.506,3.593-5.26,6.8-5.26c1.196,0,2.18,0.365,2.95,1.092c0.77,0.727,1.314,1.828,1.636,3.303
		c0.32,1.475,0.523,2.812,0.609,4.008c0.067,0.952,0.107,2.157,0.121,3.594H81.406C81.25,150.282,81.576,148.037,82.391,145.904z"/>
	<path fill="#FFFFFF" d="M135.179,153.795c0-3.379-1.325-6.596-3.977-9.654c-2.651-3.057-5.965-4.586-9.941-4.586
		c-4.705,0-8.659,1.615-11.866,4.844s-4.811,7.193-4.811,11.896c0,4.791,1.581,8.768,4.746,11.932
		c3.164,3.164,7.12,4.746,11.866,4.746c2.053-0.385,3.934-1.025,5.645-1.924c1.71-0.898,3.057-1.828,4.041-2.791
		c0.983-0.961,1.807-1.945,2.47-2.949c0.662-1.006,1.122-1.797,1.379-2.375c0.257-0.576,0.385-0.93,0.385-1.057l-0.642-0.064
		c-2.01,3.164-5.003,4.746-8.979,4.746c-1.454,0-2.802-0.256-4.041-0.77c-3.378-1.369-5.752-4.234-7.12-8.596
		c-0.354-1.158-0.591-2.289-0.735-3.398h12.987H135.179z M113.476,152.641c-0.155-2.358,0.17-4.604,0.986-6.736
		c1.324-3.506,3.592-5.26,6.799-5.26c1.197,0,2.181,0.365,2.951,1.092c0.77,0.727,1.314,1.828,1.635,3.303s0.523,2.812,0.609,4.008
		c0.068,0.952,0.108,2.157,0.122,3.594H113.476z"/>
	<path fill="#FFFFFF" d="M168.406,168.482l-13.115-17.677l0.031-0.026c2.693-2.693,5.473-5.076,8.338-7.152
		c2.865-2.072,4.98-3.109,6.35-3.109l-0.064-0.514c-5.217,0.727-10.646,0.727-16.291,0v0.514l0.705,0.32
		c0.514,0.256,1.027,0.641,1.539,1.154c0.514,0.514,0.93,1.133,1.252,1.859c0.32,0.729,0.266,1.658-0.16,2.791
		c-0.43,1.133-1.283,2.342-2.566,3.623c-0.633,0.635-3.266,2.832-7.889,6.587v-35.835l-0.514-0.064
		c-1.24,0.77-2.545,1.391-3.912,1.861c-1.369,0.471-2.589,0.812-3.657,1.025c-1.069,0.215-2.737,0.492-5.003,0.834
		c-0.514,0.086-0.898,0.15-1.154,0.193v0.385c1.752,0.428,3.131,1.25,4.137,2.469c1.004,1.219,1.508,2.812,1.508,4.779v36.303
		c0,0.643-0.321,1.219-0.963,1.732c-0.641,0.514-1.305,0.834-1.988,0.963l-0.898,0.256v0.514c5.004-0.684,10.393-0.684,16.164,0
		c0-0.215,0.043-0.385,0.129-0.514l-1.025-0.256c-0.686-0.172-1.326-0.492-1.926-0.963s-0.896-1.154-0.896-2.053v-10.326l2.28-1.915
		l9.136,12.306c0.471,0.684,0.619,1.305,0.449,1.859c-0.172,0.557-0.578,0.92-1.219,1.092l-0.963,0.256v0.514
		c5.174-0.727,10.605-0.727,16.293,0v-0.514l-0.963-0.256C170.609,171.24,169.56,170.236,168.406,168.482z"/>
	<path fill="#FFFFFF" d="M46.793,200.512c0.727-1.666,1.09-3.549,1.09-5.643c0-2.053-0.46-3.902-1.379-5.549
		c-0.92-1.646-2.085-2.973-3.496-3.977c-1.411-1.004-3.037-1.838-4.875-2.502c-1.839-0.662-3.624-1.123-5.356-1.379
		c-1.732-0.258-3.454-0.385-5.163-0.385c-0.813,0.043-2.63,0.215-5.452,0.514v0.006c-2.323,0.252-4.292,0.379-5.901,0.379
		c-4.49,0-8.21-0.299-11.161-0.898v0.514c0.128,0.043,0.331,0.096,0.609,0.16c0.278,0.062,0.759,0.213,1.443,0.447
		c0.684,0.236,1.293,0.525,1.828,0.867c0.534,0.342,1.015,0.824,1.443,1.443c0.427,0.619,0.642,1.314,0.642,2.084v40.346
		c0,0.77-0.214,1.453-0.642,2.053c-0.428,0.6-0.92,1.068-1.475,1.41c-0.556,0.344-1.145,0.631-1.764,0.867
		c-0.621,0.234-1.113,0.395-1.476,0.48c-0.364,0.086-0.567,0.129-0.609,0.129v0.512c3.036-0.641,6.863-0.961,11.481-0.961
		s8.488,0.32,11.61,0.961v-0.512c-0.171-0.043-0.396-0.086-0.674-0.129c-0.278-0.043-0.759-0.182-1.443-0.418
		c-0.685-0.234-1.283-0.521-1.796-0.865c-0.513-0.342-0.984-0.822-1.411-1.443c-0.428-0.619-0.642-1.314-0.642-2.084V210.07h5.388
		c0.47,0,0.983-0.01,1.539-0.033c0.555-0.02,1.561-0.139,3.015-0.352c1.453-0.215,2.791-0.492,4.009-0.834
		c1.219-0.342,2.587-0.887,4.105-1.637c1.517-0.746,2.8-1.635,3.848-2.662C45.179,203.527,46.066,202.18,46.793,200.512z
		 M35.601,201.795c-0.62,2.139-1.636,3.924-3.047,5.355c-1.411,1.434-3.058,2.15-4.938,2.15c-0.3,0-0.664,0-1.091,0
		c-0.428,0-1.101,0-2.021,0c-0.673,0-1.433,0-2.277,0v-26.573c1.157-0.372,2.95-0.56,5.388-0.56c1.625,0,3.036,0.363,4.233,1.09
		c1.197,0.729,2.117,1.732,2.758,3.016s1.123,2.619,1.443,4.008c0.321,1.391,0.481,2.92,0.481,4.588
		C36.531,197.35,36.22,199.658,35.601,201.795z"/>
	<path fill="#FFFFFF" d="M73.604,229.826l-0.449-0.322c-0.897,0.643-1.626,0.898-2.181,0.771c-0.984-0.299-1.476-0.92-1.476-1.861
		v-20.846c0-0.812-0.15-1.732-0.448-2.758c-1.198-3.422-4.041-5.131-8.531-5.131c-2.908,0-5.752,0.76-8.531,2.275
		c-2.779,1.52-5.003,3.262-6.67,5.229c-1.668,2.053-2.501,3.807-2.501,5.26c-0.043,1.068,0.353,1.955,1.187,2.662
		c0.834,0.705,1.828,1.059,2.982,1.059c1.753,0.043,3.089-0.6,4.009-1.926c0.92-1.324,1.379-3.035,1.379-5.131l-0.064-3.014
		c0-1.711,0.556-2.982,1.668-3.816c1.111-0.834,2.587-1.252,4.426-1.252c0.983,0.043,1.646,0.375,1.988,0.994
		c0.342,0.621,0.514,1.551,0.514,2.791v8.833c-0.701,0.277-1.582,0.623-2.662,1.044c-2.63,1.027-4.521,1.797-5.676,2.311
		c-0.129,0.043-0.321,0.127-0.578,0.256c-1.24,0.557-2.267,1.059-3.078,1.508c-0.813,0.449-1.754,1.057-2.823,1.828
		c-1.069,0.77-1.871,1.656-2.405,2.66c-0.535,1.006-0.781,2.107-0.738,3.305c0,1.838,0.748,3.379,2.245,4.617
		c1.496,1.24,3.229,1.861,5.195,1.861c2.694,0,5.312-0.803,7.857-2.406c1.169-0.737,2.058-1.548,2.689-2.425
		c0.068,1.514,0.612,2.695,1.672,3.515c1.133,0.877,2.662,1.316,4.586,1.316c1.197,0,2.416-0.344,3.656-1.027
		S73.004,230.596,73.604,229.826z M59.589,228.254c-1.306,1.262-2.557,1.893-3.753,1.893c-0.812,0-1.497-0.16-2.052-0.48
		c-0.557-0.322-0.974-0.781-1.252-1.381c-0.278-0.598-0.471-1.195-0.576-1.795c-0.107-0.598-0.161-1.305-0.161-2.117
		c-0.043-0.77-0.022-1.484,0.064-2.148c0.085-0.662,0.277-1.262,0.577-1.797c0.299-0.533,0.555-1.004,0.77-1.41
		c0.214-0.406,0.619-0.803,1.219-1.188c0.599-0.385,1.037-0.693,1.314-0.93c0.278-0.234,0.834-0.512,1.668-0.834
		c0.834-0.32,1.4-0.533,1.7-0.641c0.28-0.1,0.888-0.309,1.796-0.619v11.75C60.584,227.144,60.151,227.711,59.589,228.254z"/>
	<path fill="#FFFFFF" d="M94.129,199.68c-1.325,0-2.534,0.406-3.624,1.219s-1.914,1.689-2.469,2.629
		c-0.557,0.941-1.209,2.127-1.957,3.561c-0.325,0.622-0.609,1.146-0.865,1.602v-8.305l-0.449-0.064
		c-1.668,1.068-3.528,1.859-5.58,2.373c-2.012,0.514-4.727,1.027-8.146,1.539v0.385c1.668,0.471,3.015,1.305,4.041,2.502
		c1.025,1.197,1.539,2.779,1.539,4.746l-0.064,17.062c0.086,0.641-0.235,1.219-0.962,1.732c-0.556,0.512-1.197,0.832-1.925,0.961
		l-0.961,0.258c0.041,0.127,0.063,0.299,0.063,0.512c5.602-0.684,11.032-0.684,16.292,0v-0.512l-0.962-0.258
		c-0.685-0.17-1.325-0.49-1.925-0.961c-0.641-0.471-0.961-1.156-0.961-2.053v-17.528c0.579-1.352,1.188-2.556,1.828-3.606
		c0.662-1.092,1.271-1.637,1.827-1.637c0.342,0,0.577,0.215,0.706,0.643c1.068,2.48,2.736,3.719,5.003,3.719
		c1.196,0,2.202-0.512,3.015-1.539c0.812-1.025,1.219-2.244,1.219-3.656c0-1.539-0.417-2.811-1.251-3.816
		C96.727,200.182,95.583,199.68,94.129,199.68z"/>
	<path fill="#FFFFFF" d="M115.103,230.562c-0.6-0.533-0.877-1.186-0.834-1.955V200.32l-0.449-0.064
		c-1.326,0.812-2.736,1.475-4.233,1.988s-2.78,0.867-3.849,1.059c-1.069,0.193-2.95,0.504-5.645,0.93v0.385
		c1.71,0.428,3.068,1.252,4.073,2.471s1.507,2.811,1.507,4.777l-0.063,17.062c0.042,0.6-0.257,1.154-0.897,1.668
		c-0.643,0.512-1.306,0.855-1.989,1.025l-0.962,0.258c0.042,0.127,0.064,0.299,0.064,0.512c5.388-0.684,10.817-0.684,16.291,0
		v-0.512l-0.961-0.258C116.386,231.451,115.701,231.098,115.103,230.562z"/>
	<path fill="#FFFFFF" d="M106.764,182.008c-1.026,1.09-1.539,2.404-1.539,3.945c0,1.582,0.502,2.918,1.507,4.008
		c1.004,1.09,2.277,1.637,3.816,1.637s2.822-0.557,3.849-1.668s1.54-2.438,1.54-3.977c0-1.541-0.514-2.855-1.54-3.945
		s-2.31-1.635-3.849-1.635C109.051,180.373,107.791,180.918,106.764,182.008z"/>
	<path fill="#FFFFFF" d="M138.129,214.656c-1.026-0.877-2.159-1.656-3.399-2.342c-1.24-0.684-2.48-1.303-3.721-1.859
		s-2.373-1.102-3.398-1.637c-1.027-0.533-1.861-1.176-2.502-1.924c-0.642-0.748-0.963-1.592-0.963-2.533l0.129-0.834
		c0.128-0.555,0.49-1.111,1.09-1.668c0.599-0.555,1.412-0.834,2.438-0.834c1.453,0,3.1,0.867,4.939,2.598
		c1.838,1.732,3.721,4.395,5.645,7.986h0.513l-0.962-9.172l-0.705-0.707c-0.472-0.426-1.379-0.875-2.727-1.346
		s-2.897-0.705-4.65-0.705c-3.293,0-6.115,1.1-8.467,3.303s-3.527,4.564-3.527,7.088c0,1.582,0.427,2.992,1.283,4.232
		c0.854,1.24,1.912,2.234,3.174,2.982c1.262,0.75,2.641,1.508,4.138,2.277c1.496,0.77,2.876,1.486,4.138,2.148
		c1.26,0.664,2.318,1.529,3.174,2.598c0.855,1.07,1.283,2.289,1.283,3.656l-0.128,0.963c-0.043,0.684-0.385,1.348-1.026,1.988
		s-1.539,0.963-2.693,0.963c-2.096,0-4.373-1.477-6.832-4.426c-2.459-2.951-4.031-5.924-4.714-8.916h-0.513l-0.193,11.545
		l1.476,0.77c0.94,0.471,2.319,0.953,4.138,1.443c1.816,0.49,3.58,0.738,5.291,0.738c3.121,0,5.857-1.027,8.211-3.08
		c2.352-2.053,3.527-4.467,3.527-7.248c0-1.752-0.32-3.312-0.961-4.682C139.99,216.656,139.156,215.533,138.129,214.656z"/>
</g>
</svg>
