<?xml version="1.0" encoding="utf-8"?>
<!-- Generator: Adobe Illustrator 16.0.0, SVG Export Plug-In . SVG Version: 6.00 Build 0)  -->
<!DOCTYPE svg PUBLIC "-//W3C//DTD SVG 1.1//EN" "http://www.w3.org/Graphics/SVG/1.1/DTD/svg11.dtd">
<svg version="1.1" id="Layer_1" xmlns="http://www.w3.org/2000/svg" xmlns:xlink="http://www.w3.org/1999/xlink" x="0px" y="0px"
	 width="305.083px" height="41.416px" viewBox="0 0 305.083 41.416" enable-background="new 0 0 305.083 41.416"
	 xml:space="preserve">
<g>
	<g>
		<path d="M23.489,22.074h14.033v3.327H23.489V40.41H42.1V15.422H23.489V22.074z M1.499,40.41H20.11V15.422H1.499V40.41z
			 M1.499,12.094H42.1V0.422H1.499V12.094z M62.844,5.653h9.905V0.918H56.23v23.005h6.614v-8.516h9.13v-4.48h-9.13V5.653z
			 M89.913,21.891c-0.043-0.636-0.065-1.208-0.065-1.717v-8.229c0-1.505-0.758-2.632-2.274-3.384
			c-1.516-0.752-3.296-1.128-5.339-1.128c-2.28,0-4.205,0.408-5.775,1.223c-1.57,0.816-2.355,2.156-2.355,4.02l6.098,0.032
			c0-0.127,0.005-0.258,0.016-0.397c0.011-0.137,0.027-0.27,0.049-0.396c0.064-0.424,0.242-0.814,0.532-1.175
			c0.291-0.361,0.769-0.542,1.436-0.542c0.881,0,1.398,0.323,1.549,0.969c0.149,0.646,0.226,1.404,0.226,2.272
			c-2.796,0-5.329,0.354-7.598,1.064c-2.271,0.71-3.458,2.198-3.566,4.465c0,0.275,0.011,0.562,0.033,0.858
			c0.021,0.296,0.075,0.593,0.161,0.89c0.215,0.933,0.763,1.785,1.645,2.558c0.882,0.773,2.377,1.161,4.485,1.161
			c1.054,0,1.936-0.176,2.646-0.525c0.71-0.35,1.258-0.735,1.645-1.16c0.13-0.127,0.237-0.26,0.324-0.396
			c0.085-0.138,0.161-0.281,0.226-0.43v0.032c0,0.317,0.016,0.599,0.048,0.842c0.032,0.243,0.059,0.45,0.081,0.62
			c0.043,0.17,0.086,0.34,0.129,0.508h6.098C90.106,23.204,89.955,22.525,89.913,21.891z M84.009,17.125
			c0,0.233-0.011,0.465-0.032,0.699c-0.044,0.423-0.135,0.841-0.274,1.254c-0.141,0.413-0.371,0.79-0.694,1.129
			c-0.237,0.233-0.49,0.401-0.758,0.508c-0.269,0.107-0.543,0.159-0.823,0.159c-0.602,0-1.14-0.233-1.613-0.699
			c-0.473-0.465-0.709-0.974-0.709-1.524v-0.112c0-0.031,0.01-0.068,0.032-0.11c0-0.042,0.005-0.08,0.016-0.111
			c0.011-0.032,0.016-0.068,0.016-0.111c0.085-0.529,0.446-0.916,1.081-1.16c0.634-0.243,1.317-0.407,2.049-0.492
			c0.3-0.042,0.596-0.069,0.887-0.08c0.29-0.011,0.565-0.027,0.823-0.049V17.125z M105.06,15.408
			c-1.28-0.656-2.791-1.197-4.533-1.621c-0.236-0.063-0.479-0.121-0.726-0.174c-0.248-0.052-0.49-0.112-0.726-0.175
			c-0.603-0.148-1.049-0.322-1.339-0.523c-0.291-0.202-0.458-0.418-0.5-0.652v-0.191c0-0.296,0.166-0.556,0.5-0.779
			c0.333-0.222,0.704-0.333,1.113-0.333c0.494,0,0.914,0.165,1.258,0.492c0.344,0.329,0.516,0.737,0.516,1.224l5.839,0.032
			c0-0.296-0.021-0.63-0.064-1.001c-0.043-0.371-0.151-0.757-0.323-1.159c-0.344-0.783-1.043-1.499-2.097-2.145
			c-1.054-0.646-2.764-0.969-5.13-0.969c-2.366,0-4.135,0.414-5.307,1.239c-1.172,0.826-1.898,1.726-2.178,2.701
			c-0.064,0.191-0.107,0.376-0.129,0.556c-0.021,0.18-0.032,0.354-0.032,0.524c0.129,1.737,0.946,2.955,2.452,3.653
			c1.505,0.701,3.15,1.229,4.936,1.59c0.752,0.212,1.312,0.456,1.678,0.731c0.366,0.275,0.581,0.561,0.646,0.858
			c0.021,0.042,0.032,0.084,0.032,0.127v0.127c0,0.38-0.188,0.714-0.564,1c-0.376,0.286-0.812,0.43-1.306,0.43
			c-0.517,0-0.941-0.175-1.275-0.525c-0.333-0.35-0.564-0.735-0.693-1.159c-0.022-0.106-0.038-0.207-0.048-0.302
			c-0.011-0.096-0.016-0.196-0.016-0.302h-5.84v0.032c0,1.61,0.468,2.966,1.404,4.067c0.936,1.103,2.931,1.653,5.984,1.653
			c2.667,0,4.732-0.404,6.195-1.209c1.462-0.805,2.194-2.149,2.194-4.035C106.979,17.326,106.339,16.065,105.06,15.408z
			 M119.498,7.179c-1.011,0-1.985,0.19-2.92,0.572c-0.935,0.381-1.65,0.932-2.145,1.652V0.918h-6.356v23.005h6.356v-9.469
			c0-0.868,0.161-1.63,0.483-2.287c0.323-0.657,0.925-0.985,1.807-0.985s1.522,0.243,1.92,0.73c0.397,0.487,0.597,1.155,0.597,2.001
			v10.009h6.355V13.438c0-2.14-0.538-3.717-1.613-4.734C122.906,7.688,121.411,7.179,119.498,7.179z M127.981,4.922h6.356V0.918
			h-6.356V4.922z M127.981,23.924h6.356V7.655h-6.356V23.924z M152.033,9.371c-1.818-1.292-4.124-1.938-6.92-1.938
			c-3.57,0-6,0.841-7.291,2.526c-1.291,1.684-2,3.585-2.129,5.704v0.031c0,2.627,0.871,4.74,2.613,6.339
			c1.742,1.601,4.011,2.4,6.807,2.4c0.43,0,0.876-0.027,1.339-0.08c0.462-0.055,0.93-0.133,1.403-0.238
			c1.721-0.359,3.301-1.208,4.742-2.542c1.441-1.334,2.162-3.378,2.162-6.133C154.76,12.687,153.851,10.663,152.033,9.371z
			 M148.146,15.694c0,0.255-0.011,0.519-0.033,0.795c-0.021,0.275-0.054,0.561-0.097,0.857c-0.129,0.848-0.409,1.621-0.839,2.32
			c-0.43,0.699-1.119,1.048-2.065,1.048c-0.882,0-1.613-0.438-2.193-1.319c-0.581-0.879-0.872-2.197-0.872-3.956
			c0-1.376,0.258-2.467,0.774-3.272c0.517-0.807,1.279-1.208,2.291-1.208c1.162,0,1.947,0.434,2.355,1.303
			c0.409,0.869,0.634,1.822,0.678,2.859V15.694z M169.923,7.814c-0.474-0.147-0.946-0.248-1.42-0.302
			c-0.473-0.053-0.882-0.079-1.226-0.079c-1.119,0-2.076,0.222-2.871,0.667c-0.797,0.445-1.441,0.975-1.937,1.588V9.593
			c0-0.233-0.016-0.46-0.048-0.683c-0.033-0.224-0.06-0.417-0.081-0.588c-0.021-0.19-0.048-0.344-0.081-0.462
			c-0.031-0.116-0.049-0.185-0.049-0.206h-6.355v0.032c0.065,0.402,0.107,0.763,0.13,1.08c0.042,0.339,0.075,0.715,0.097,1.127
			c0.021,0.414,0.032,0.832,0.032,1.256v12.773h6.355v-9.978c0-0.868,0.264-1.546,0.79-2.033c0.527-0.487,1.103-0.742,1.727-0.763
			h0.097c0.624,0.021,1.188,0.275,1.694,0.763s0.758,1.239,0.758,2.256v9.755h6.098V12.453c0-1.398-0.387-2.452-1.162-3.163
			C171.697,8.582,170.847,8.09,169.923,7.814z M195.055,0.918h-21.067v4.735h7.355v18.271h6.356V5.653h7.355V0.918z M207.025,10.371
			c-1.248-1.958-3.592-2.938-7.033-2.938c-2.668,0-4.775,0.763-6.324,2.288s-2.322,3.602-2.322,6.228
			c0,2.88,0.721,5.016,2.161,6.403c1.44,1.387,3.688,2.082,6.743,2.082c2.43,0,4.371-0.488,5.824-1.463
			c1.451-0.974,2.305-2.403,2.564-4.29h-5.84v0.032c0,0.657-0.242,1.17-0.727,1.541c-0.484,0.372-1.006,0.599-1.564,0.684
			c-0.086,0-0.172,0.006-0.258,0.015c-0.086,0.012-0.172,0.017-0.258,0.017c-0.861,0-1.484-0.207-1.871-0.62
			c-0.389-0.413-0.646-0.863-0.775-1.35c-0.064-0.297-0.103-0.583-0.112-0.858c-0.011-0.275-0.017-0.52-0.017-0.73l11.68,0.031
			C208.896,14.688,208.271,12.332,207.025,10.371z M197.217,13.946c0-0.868,0.274-1.625,0.822-2.272
			c0.549-0.645,1.199-0.968,1.953-0.968c0.752,0,1.408,0.292,1.968,0.873c0.559,0.584,0.839,1.362,0.839,2.336L197.217,13.946z
			 M216.414,12.263c0.387-0.869,0.957-1.303,1.709-1.303s1.323,0.238,1.71,0.714c0.388,0.477,0.581,1.139,0.581,1.987l6.355,0.031
			c0-2.012-0.624-3.463-1.871-4.352c-1.248-0.89-2.625-1.462-4.129-1.716c-0.452-0.064-0.904-0.112-1.355-0.145
			c-0.452-0.031-0.882-0.046-1.291-0.046c-2.538,0-4.625,0.719-6.26,2.16c-1.634,1.441-2.516,3.475-2.645,6.101
			c0,0.487,0.032,1.033,0.097,1.637s0.204,1.224,0.419,1.859c0.431,1.313,1.27,2.516,2.516,3.606
			c1.248,1.091,3.206,1.638,5.873,1.638c2.301,0,4.317-0.573,6.05-1.717c1.731-1.144,2.597-2.912,2.597-5.306h-6.355v0.031
			c0,1.124-0.193,1.949-0.581,2.478c-0.387,0.531-0.958,0.795-1.71,0.795c-0.925,0-1.532-0.482-1.822-1.446
			c-0.291-0.963-0.447-2.028-0.469-3.194V15.44C215.832,14.19,216.026,13.131,216.414,12.263z M239.546,7.179
			c-1.011,0-1.985,0.19-2.921,0.572s-1.65,0.932-2.145,1.652V0.918h-6.355v23.005h6.355v-9.469c0-0.868,0.162-1.63,0.484-2.287
			c0.322-0.657,0.924-0.985,1.807-0.985c0.881,0,1.521,0.243,1.918,0.73c0.398,0.487,0.598,1.155,0.598,2.001v10.009h6.355V13.438
			c0-2.14-0.537-3.717-1.613-4.734C242.954,7.688,241.459,7.179,239.546,7.179z M267.066,8.158c-1.07-0.59-2.461-0.822-4.837-0.822
			h-4.708l-0.043,0.337c1.691,0,2.033,0.168,1.861,1.286l-2.098,13.364c-0.148,0.991-0.555,1.266-2.203,1.266l-0.044,0.336h5.716
			l0.042-0.336c-1.948,0-2.44-0.254-2.247-1.434l0.941-6.093l1.264-8.156h1.411c1.862,0,3.189,0.167,4.109,0.78
			c0.792,0.547,1.349,1.391,1.349,2.761c0,3.225-2.332,4.89-5.607,4.89c-0.707,0-1.818-0.105-2.525-0.274
			c0.984,0.591,2.461,0.823,3.574,0.823c3.275,0,5.928-2.172,5.928-5.375C268.949,9.886,268.222,8.812,267.066,8.158z
			 M276.378,23.48c-0.406,0-0.406-0.273-0.257-1.074l1.627-8.958h-1.135l-0.129,0.633c-0.277-0.443-0.877-0.781-1.754-0.781
			c-3.04,0-6.207,3.499-6.207,7.525c0,1.624,0.621,3.393,2.676,3.393c1.669,0,3.104-1.117,4.151-4.11
			c-1.562,2.803-2.739,3.331-3.745,3.331c-1.049,0-1.862-0.78-1.862-2.888c0-3.246,2.055-6.725,4.837-6.725
			c0.92,0,1.605,0.59,1.713,1.392l-1.35,7.504c-0.191,1.033,0.129,1.496,0.898,1.496c1.456,0,2.698-2.17,3.361-3.752l-0.214-0.105
			C278.282,21.88,277.041,23.48,276.378,23.48z M287.615,13.448c-0.471,0-2.525,0.231-3.961,4.11
			c0.686-1.454,1.777-2.931,3.511-2.931c0.45,0,1.263,0.022,1.263-0.653C288.428,13.596,288.085,13.448,287.615,13.448z
			 M283.184,13.3c-1.305,0-2.097,1.561-2.695,2.994l0.214,0.105c0.685-1.433,1.349-2.403,1.969-2.403c0.427,0,0.45,0.316,0.3,1.159
			l-1.605,8.769h1.134l1.155-6.365l0.429-2.34C284.318,13.87,284.062,13.3,283.184,13.3z M293.33,9.759
			c0.557,0,0.963-0.4,0.963-0.906c0-0.526-0.406-0.948-0.963-0.948c-0.492,0-0.92,0.422-0.92,0.948
			C292.41,9.359,292.838,9.759,293.33,9.759z M292.217,23.48c-0.406,0-0.406-0.273-0.257-1.115l1.306-7.146
			c0.235-1.349-0.021-1.918-0.898-1.918c-1.306,0-2.098,1.561-2.697,2.994l0.215,0.105c0.685-1.433,1.348-2.403,1.969-2.403
			c0.428,0,0.449,0.316,0.299,1.159l-1.369,7.546c-0.192,1.055,0.128,1.518,0.898,1.518c1.455,0,2.697-2.17,3.361-3.752
			l-0.215-0.105C294.121,21.88,292.88,23.48,292.217,23.48z M301.312,13.3c-1.562,0-3.338,0.759-3.338,2.425
			c0,1.265,1.026,2.065,1.883,2.719l0.941,0.717c0.941,0.695,1.841,1.622,1.841,2.761c0,1.328-1.37,1.896-2.439,1.896
			c-2.163,0-1.884-1.959-2.933-1.959c-0.406,0-0.621,0.295-0.621,0.631c0,0.654,1.135,1.729,3.425,1.729
			c2.033,0,3.617-0.928,3.617-2.824c0-1.349-1.156-2.298-2.034-2.993l-1.006-0.76c-0.77-0.612-1.626-1.265-1.626-2.255
			c0-1.18,1.22-1.644,2.163-1.644c2.182,0,1.625,1.729,2.717,1.729c0.429,0,0.599-0.274,0.599-0.633
			C304.501,14.164,302.982,13.3,301.312,13.3z M59.19,34.011c-0.063-0.016-0.127-0.027-0.189-0.035
			c-0.063-0.009-0.127-0.011-0.19-0.011c-0.279,0-0.52,0.035-0.722,0.107c-0.203,0.073-0.396,0.198-0.58,0.374V32.37h-1.555v5.628
			h1.492c0.005-0.005,0.008-0.01,0.008-0.016c0.026-0.113,0.045-0.27,0.055-0.467c0,0.006,0.001,0.01,0.004,0.013
			c0.002,0.003,0.007,0.007,0.012,0.012c0.095,0.146,0.237,0.278,0.426,0.4s0.437,0.183,0.742,0.183c0.468,0,0.885-0.168,1.25-0.502
			c0.366-0.334,0.549-0.9,0.549-1.697c0-0.592-0.136-1.039-0.407-1.342C59.814,34.278,59.516,34.088,59.19,34.011z M58.744,36.852
			c-0.087,0.24-0.27,0.361-0.549,0.361c-0.231,0-0.395-0.086-0.489-0.256c-0.095-0.172-0.153-0.36-0.174-0.568
			c-0.011-0.072-0.017-0.143-0.02-0.209c-0.003-0.066-0.004-0.131-0.004-0.196c0-0.273,0.044-0.526,0.134-0.757
			c0.089-0.23,0.273-0.346,0.552-0.346c0.311,0,0.501,0.107,0.572,0.323c0.071,0.216,0.106,0.475,0.106,0.78
			C58.874,36.321,58.83,36.61,58.744,36.852z M63.065,36.715l-0.743-2.634h-1.681l1.681,3.979l-0.56,1.406h1.429l2.17-5.386h-1.429
			L63.065,36.715z M68.855,40.02h2.728v-8.062h-2.728V40.02z M72.266,40.02h2.729v-8.062l-2.729,1.345V40.02z M77.041,38.676
			l2.728,1.344v-8.062h-2.728V38.676z M80.452,40.02l2.728-1.344v-6.719h-2.728V40.02z M100.234,40.02h2.729v-8.062h-2.729V40.02z
			 M96.824,38.676l2.728,1.344v-8.062l-2.728,1.345V38.676z M88.637,40.02h2.729v-8.062l-2.729,1.345V40.02z M92.048,40.02h2.729
			v-8.062l-2.729,1.345V40.02z M85.226,40.02h2.729v-8.062h-2.729V40.02z"/>
	</g>
</g>
</svg>
